<?xml version="1.0" encoding="utf-8"?>
<!-- Generator: Adobe Illustrator 27.0.0, SVG Export Plug-In . SVG Version: 6.00 Build 0)  -->
<svg version="1.1" id="Layer_1" xmlns="http://www.w3.org/2000/svg" xmlns:xlink="http://www.w3.org/1999/xlink" x="0px" y="0px"
	 viewBox="0 0 500 500" style="enable-background:new 0 0 500 500;" xml:space="preserve">
<style type="text/css">
	.st0{fill:#F5F5F5;}
	.st1{fill:#82A8FB;}
	.st2{opacity:0.2;enable-background:new    ;}
	.st3{opacity:0.3;enable-background:new    ;}
	.st4{fill:#263238;}
	.st5{fill:#FF8B7B;}
	.st6{opacity:0.4;fill:#FFFFFF;enable-background:new    ;}
	.st7{fill:#FFFFFF;}
	.st8{fill:#FF5652;}
	.st9{opacity:0.8;fill:#FFFFFF;enable-background:new    ;}
	.st10{opacity:0.6;fill:#82A8FB;enable-background:new    ;}
</style>
<g id="freepik--Shadow--inject-5">
	<ellipse id="freepik--path--inject-5" class="st0" cx="250" cy="416.2" rx="193.9" ry="11.3"/>
</g>
<g id="freepik--Mailbox--inject-5">
	<path class="st1" d="M184.6,416.2h-31.5c-2.5,0-4.5-2-4.5-4.5l0,0v-54.9l0,0h40.5l0,0v54.9C189.1,414.2,187.1,416.2,184.6,416.2z"
		/>
	<polygon class="st2" points="189.1,356.9 148.6,356.9 148.6,380.7 189.1,371.9 	"/>
	<path class="st1" d="M206.5,284.8c0-31.5,25.5-57,57-57c31.5,0,57,25.5,57,57c0,0,0,0,0,0.1v72h-114L206.5,284.8z"/>
	<path class="st3" d="M206.5,284.8c0-31.5,25.5-57,57-57c31.5,0,57,25.5,57,57c0,0,0,0,0,0.1v72h-114L206.5,284.8z"/>
	<path class="st1" d="M72.3,284.8v65c0,3.9,3.2,7.1,7.1,7.1c0,0,0,0,0,0h127.1v-72.1c0-31.5,25.5-57,57-57H129.3
		C97.8,227.8,72.3,253.3,72.3,284.8z"/>
	<rect x="72.3" y="315.6" class="st2" width="134.2" height="20"/>
	<rect x="72.3" y="289.4" class="st2" width="134.2" height="20"/>
	<rect x="198.6" y="224.3" class="st1" width="16.3" height="1"/>
	<rect x="181.2" y="224.3" class="st1" width="8.8" height="1"/>
	<path class="st4" d="M137.9,303.5v-81c0-1.2-1-2.2-2.2-2.2c-0.1,0-0.2,0-0.4,0l-28.3,4.6v11.7h21.6v66.6c-5.3,2.4-7.7,8.7-5.2,14.1
		c2.4,5.3,8.7,7.7,14.1,5.2c5.3-2.4,7.7-8.7,5.2-14.1C141.7,306.4,140,304.6,137.9,303.5L137.9,303.5z"/>
	<path class="st1" d="M214.6,365h146.2c2.2,0,4-1.8,4.1-4l0,0c0-2.2-1.8-4.1-4.1-4.1H206.5C206.5,361.4,210.1,365,214.6,365z"/>
	<path class="st2" d="M214.6,365h59.8c2.2,0,4-1.8,4.1-4l0,0c0-2.2-1.8-4.1-4.1-4.1h-67.9C206.5,361.4,210.1,365,214.6,365z"/>
</g>
<g id="freepik--Character--inject-5">
	<polygon class="st5" points="354.5,407.4 346,407.5 343.7,387.9 352.2,387.8 	"/>
	<polygon class="st2" points="343.7,387.9 344.9,398 353.4,397.9 352.2,387.8 	"/>
	<polygon class="st5" points="423.2,386.6 416,390.9 404.1,375.2 411.4,370.8 	"/>
	<polygon class="st2" points="404.1,375.2 410.2,383.3 417.5,379 411.4,370.8 	"/>
	<path class="st4" d="M346,406.5l9.2-0.1c0.4,0,0.7,0.2,0.8,0.6l2.2,7.5c0.2,0.6-0.1,1.3-0.7,1.5c-0.1,0-0.2,0.1-0.4,0.1
		c-3.3,0-8.2-0.2-12.4-0.1c-4.9,0-7.1,0.4-12.8,0.4c-3.5,0-4.7-3.5-3.3-3.8c6.5-1.5,9.9-1.7,15.3-5.3
		C344.6,406.7,345.3,406.5,346,406.5z"/>
	<path class="st1" d="M342.5,408c0.9,0,1.8-0.1,2.7-0.3c0.1,0,0.1-0.1,0.1-0.2c0-0.1,0-0.2-0.1-0.2c-0.4-0.2-4-1.9-4.9-1.3
		c-0.2,0.1-0.3,0.3-0.3,0.5c0,0.4,0.1,0.8,0.5,1C341.1,407.9,341.8,408.1,342.5,408z M344.5,407.4c-1.8,0.3-3.2,0.2-3.8-0.2
		c-0.2-0.2-0.3-0.4-0.3-0.7c0-0.1,0-0.2,0.1-0.2C341.1,406,343.1,406.7,344.5,407.4L344.5,407.4z"/>
	<path class="st1" d="M345.2,407.7c0,0,0.1,0,0.1,0c0.1,0,0.1-0.1,0.1-0.2c0-0.2-0.7-3.8-2.7-3.6c-0.5,0.1-0.7,0.3-0.7,0.5
		C341.8,405.4,344,407.2,345.2,407.7L345.2,407.7z M342.9,404.2c1.2,0,1.8,2,2,2.8c-1.1-0.6-2.6-2.1-2.5-2.6c0,0,0-0.2,0.4-0.2
		H342.9z"/>
	<path class="st5" d="M358.3,173.6c-1.1,6.4-2.5,12.6-4.2,18.8c-0.9,3.1-1.8,6.2-2.8,9.3c-0.5,1.6-1,3.1-1.7,4.6
		c-0.3,0.8-0.6,1.5-0.9,2.3l-0.5,1.2l-0.2,0.6l-0.1,0.3l-0.2,0.4c-0.8,1.8-1.8,3.4-3,5c-1,1.4-2.1,2.7-3.2,4
		c-2.1,2.5-4.4,4.9-6.6,7.2c-4.5,4.5-9.3,8.8-14.2,12.9l-4.5-4.5c3.9-4.9,7.7-9.8,11.5-14.7c1.9-2.4,3.7-4.9,5.4-7.4
		c0.9-1.2,1.7-2.4,2.4-3.6c0.6-1,1.2-2.1,1.6-3.2c0.1-0.1,0.2-0.6,0.3-0.9l0.3-1.1c0.2-0.7,0.5-1.4,0.7-2.1c0.4-1.4,0.8-2.9,1.2-4.3
		c0.8-2.9,1.5-5.9,2.2-8.9c1.4-6,2.7-12.1,3.9-18L358.3,173.6z"/>
	<path class="st1" d="M361.3,174.8c-0.5,9.7-5.2,23.2-5.2,23.2l-13.1-5l-5.4-2c0.7-6.4,2.2-12.7,4.5-18.7c4-10.3,13.3-12.8,18-5.2
		C361.1,168.8,361.4,171.6,361.3,174.8z"/>
	<path class="st2" d="M361.3,174.8c-0.5,9.7-5.2,23.2-5.2,23.2l-13.1-5c0.8-3.4,1.8-6.8,3.1-10C349.3,174.4,356.3,171.2,361.3,174.8
		z"/>
	<path class="st5" d="M318.2,234.7l-8.9,1.5l-0.1,8.8c0,0,8.6-1.2,11.9-5.3L318.2,234.7z"/>
	<polygon class="st5" points="301.1,241.2 301.2,247 309.2,244.9 309.3,236.2 	"/>
	<path class="st4" d="M351.9,236.2c0,0-12.7,46.3-16.1,72.2c-3.5,26.9,4.8,84.7,4.8,84.7l15.3-0.3c0,0,1.1-58.9,6.1-85.4
		c5.5-28.9,15.9-71.7,15.9-71.7L351.9,236.2z"/>
	<polygon class="st1" points="357.7,393.4 339.8,393.8 338.4,387.8 357.5,387.8 	"/>
	<polygon class="st6" points="357.7,393.4 339.8,393.8 338.4,387.8 357.5,387.8 	"/>
	<path class="st4" d="M415.5,390.1l8-4.7c0.3-0.2,0.7-0.2,1,0.1l5.7,5.4c0.5,0.4,0.5,1.1,0.1,1.6c-0.1,0.1-0.2,0.2-0.3,0.2
		c-2.9,1.7-7.1,4-10.8,6.1c-4.2,2.5-6,3.9-10.9,6.8c-3,1.8-5.8-0.6-4.7-1.6c4.9-4.6,7.7-6.5,10.6-12.3
		C414.4,391,414.9,390.5,415.5,390.1z"/>
	<path class="st1" d="M413.2,393.1c0.8-0.5,1.5-1,2.2-1.6c0.1-0.1,0.1-0.2,0-0.2c0-0.1-0.1-0.1-0.2-0.1c-0.5,0-4.4,0.3-4.9,1.4
		c-0.1,0.2-0.1,0.4,0,0.6c0.2,0.3,0.5,0.6,0.9,0.6C411.9,393.8,412.6,393.6,413.2,393.1z M414.6,391.6c-1.4,1.2-2.7,1.8-3.4,1.7
		c-0.2,0-0.5-0.2-0.6-0.4c0-0.1,0-0.2,0-0.2C411,392.2,413,391.8,414.6,391.6z"/>
	<path class="st1" d="M415.3,391.5c0,0,0.1-0.1,0.1-0.1c0-0.1,0-0.1,0-0.2c-0.1-0.1-2.5-3-4.1-1.7c-0.4,0.3-0.4,0.6-0.4,0.8
		C411.3,391.2,414.1,391.7,415.3,391.5L415.3,391.5z M411.6,389.8c1-0.6,2.6,0.8,3.2,1.4c-1.3,0-3.3-0.5-3.5-1c0,0-0.1-0.1,0.2-0.4
		L411.6,389.8z"/>
	<path class="st4" d="M367.7,235.8c0,0,0,45.5,1.2,71.6c1.2,27.1,35.1,73.8,35.1,73.8l13-8c0,0-22.9-44.4-22.5-71.4
		c0.4-29.4,2.7-66.7,2.7-66.7L367.7,235.8z"/>
	<polygon class="st1" points="418.7,373.2 404.3,382 400.7,378.4 416.6,367.8 	"/>
	<polygon class="st6" points="418.7,373.2 404.3,382 400.7,378.4 416.6,367.8 	"/>
	<path class="st1" d="M350.8,163c0,0-9.5,25.8,1,73.2l45.3-1c0.2-6.9-4.9-40.8,1.1-73.6c-5-0.8-10.1-1.4-15.2-1.5
		c-6.4-0.2-12.8-0.1-19.2,0.4C359.4,160.9,355.1,161.8,350.8,163z"/>
	<path class="st5" d="M380.7,138.3c-1.1,6.2-2,17.6,2.4,21.6c0,0-1.6,6.4-13.1,6.6c-9.2,0.2-6.2-6.1-6.2-6.1
		c6.9-1.8,6.6-6.9,5.3-11.7L380.7,138.3z"/>
	<path class="st2" d="M375.9,142.5l-6.9,6.1c0.3,1.1,0.5,2.2,0.7,3.4c2.6-0.4,6.2-3.4,6.4-6.2C376.3,144.8,376.2,143.6,375.9,142.5z
		"/>
	<path class="st2" d="M388.1,177.9l7.5,5.4c-0.3,5.8-0.4,11.4-0.4,16.7C390.7,195.4,388.1,186.8,388.1,177.9z"/>
	<path class="st7" d="M381.4,156.9c0,0-2.2,5.2-12.3,9.7c3.3,1.3,5.9,4,7.1,7.3c0,0,7.4-7,9.3-14L381.4,156.9z"/>
	<path class="st7" d="M361.5,171.9c0,0,3.1-4.5,7.6-5.4c-1.6-1.9-3.2-6.2-1.7-8.2c-1.3,0.3-2.6,0.8-3.8,1.4
		C363.6,159.8,357.5,163.4,361.5,171.9z"/>
	<path class="st4" d="M360.6,120.6c-4.1,1.8-6.2,12.9-0.8,15.3S368.5,117.2,360.6,120.6z"/>
	<path class="st5" d="M381.2,129c-0.3,8.4-0.1,13.3-4.2,17.7c-6.2,6.6-16.7,3-18.8-5.3c-2-7.5-1.1-20,7-23.5
		c5.8-2.5,12.6,0.1,15.1,5.9C381,125.4,381.3,127.2,381.2,129z"/>
	<path class="st4" d="M368.5,131.6c0,0.7-0.3,1.2-0.8,1.2s-0.8-0.5-0.8-1.2s0.3-1.2,0.8-1.2S368.5,130.9,368.5,131.6z"/>
	<path class="st4" d="M360.8,131.8c0,0.7-0.3,1.2-0.8,1.2s-0.8-0.5-0.8-1.2s0.3-1.2,0.8-1.2S360.8,131.1,360.8,131.8z"/>
	<path class="st8" d="M363.3,132.1c-0.8,2.1-1.8,4.1-3.1,5.9c1,0.7,2.2,0.9,3.3,0.5L363.3,132.1z"/>
	<path class="st4" d="M365.5,140.4L365.5,140.4c1.9,0,3.6-0.9,4.7-2.4c0.1-0.1,0-0.2-0.1-0.3c0,0,0,0,0,0c-0.1-0.1-0.2,0-0.3,0.1
		c-1,1.4-2.6,2.2-4.4,2.2c-0.1,0-0.2,0.1-0.2,0.2c0,0,0,0,0,0C365.3,140.3,365.3,140.4,365.5,140.4z"/>
	<path class="st4" d="M370.8,129.1c0.1,0,0.2,0,0.2-0.1c0.2-0.1,0.2-0.4,0.1-0.6c-0.8-1-2-1.6-3.3-1.6c-0.2,0-0.4,0.2-0.4,0.4
		c0,0.2,0.2,0.4,0.4,0.4l0,0c1,0,2,0.5,2.6,1.3C370.6,129,370.7,129.1,370.8,129.1z"/>
	<path class="st4" d="M357.4,129.2c0.2,0,0.3-0.1,0.4-0.2c0.4-1,1.2-1.6,2.2-1.9c0.2,0,0.4-0.2,0.3-0.5c0-0.2-0.2-0.4-0.5-0.3
		c-1.3,0.3-2.3,1.1-2.8,2.3c-0.1,0.2,0,0.4,0.2,0.5c0,0,0,0,0,0C357.3,129.2,357.3,129.2,357.4,129.2z"/>
	<path class="st5" d="M399.7,167.5c1.9,2.7,3.5,5.4,5.3,8.1s3.3,5.5,4.9,8.3c3.2,5.7,6,11.5,8.5,17.6c0.3,0.8,0.6,1.6,0.9,2.3
		l0.4,1.2l0.2,0.6l0.3,0.8c0.6,2.2,0.9,4.4,0.7,6.6c-0.4,3.9-1.7,7.7-3.8,11c-1.8,3-4,5.7-6.5,8.1c-1.2,1.2-2.5,2.3-3.7,3.4
		c-1.3,1.1-2.6,2.1-4,3l-4.1-4.9c0.9-1,1.9-2.2,2.8-3.4s1.8-2.4,2.6-3.6c1.6-2.3,3-4.8,4.1-7.3c1-2.1,1.5-4.5,1.5-6.8
		c0-0.9-0.2-1.8-0.6-2.6l-0.8-1.8c-0.3-0.7-0.6-1.3-0.9-2c-2.6-5.4-5.6-10.7-8.7-15.9s-6.4-10.5-9.7-15.6L399.7,167.5z"/>
	<path class="st1" d="M398.2,161.6c7.9,1.7,19.3,26.1,19.3,26.1L396.3,198c-3.8-5.8-6.9-11.9-9.3-18.4
		C383.3,169.3,389.8,159.7,398.2,161.6z"/>
	<path class="st1" d="M390.7,224.3l21.3,62.9c1.7,5.1-1,10.7-6.1,12.5l-143.1,48.5c-5.1,1.7-10.7-1-12.5-6.2L229,279.1
		c-0.4-1.2-0.6-2.5-0.5-3.7c0.2-4,2.9-7.5,6.6-8.8l143.1-48.5c3.8-1.3,8-0.1,10.6,2.9C389.7,222,390.3,223.1,390.7,224.3z"/>
	<path class="st9" d="M390.7,224.3l21.3,62.9c1.7,5.1-1,10.7-6.1,12.5l-143.1,48.5c-5.1,1.7-10.7-1-12.5-6.2L229,279.1
		c-0.4-1.2-0.6-2.5-0.5-3.7c0.2-4,2.9-7.5,6.6-8.8l143.1-48.5c3.8-1.3,8-0.1,10.6,2.9C389.7,222,390.3,223.1,390.7,224.3z"/>
	<path class="st10" d="M388.8,221.1L329.6,274c-6,5.4-14,8.1-22,7.5l-79.2-6c0.2-4,2.9-7.5,6.6-8.8l143.1-48.5
		C382,216.9,386.2,218,388.8,221.1z"/>
	<path class="st5" d="M400.8,232.5l-9.1,0.1l5.6,9.2c0,0,6.5-1.6,7.1-4.8L400.8,232.5z"/>
	<polygon class="st5" points="386,238 391,245.4 397.3,241.8 391.6,232.6 	"/>
	<path class="st4" d="M386.9,122.3c2,5.5-4,18.2-7.6,17.9s-4.5-13.4-2.5-16.7c-1.9,0.9-20,0.9-19.9-1c0.5-6.9,12.8-9.5,26.3-6
		C386.8,116.3,388.1,117.3,386.9,122.3z"/>
	<path class="st5" d="M385.2,138.1c-1.1,1.8-2.8,3.1-4.9,3.6c-2.7,0.7-4-1.8-3.1-4.3c0.8-2.3,3.1-5.3,5.8-4.9
		S386.5,135.9,385.2,138.1z"/>
	<path class="st1" d="M346.2,119l41.5,4.8c0.4,0,0.8-0.3,0.9-0.7l0,0c0-0.4-0.3-0.8-0.7-0.9l-41.5-4.8c-0.4,0-0.8,0.3-0.9,0.7l0,0
		C345.4,118.6,345.8,118.9,346.2,119z"/>
	<path class="st1" d="M388.6,123.1l0.7-6.2c0-1.4-1.1-2.6-2.5-2.7l-25.5-4.8c-1.9-0.4-3.6,0.7-3.6,2.2v7.9L388.6,123.1z"/>
	<polygon class="st7" points="360.1,117.7 370.9,118.9 371.2,115.8 360.1,114.5 	"/>
</g>
</svg>
